<?xml version="1.0" encoding="UTF-8"?><svg id="Logo" xmlns="http://www.w3.org/2000/svg" viewBox="0 0 88.46 90.85"><path d="M88.45,88.95h-.1s0,0,0,0c-7.85-.6-8.94-.9-12.09-9.26L52.81,14.09c-2.92-7.89-3.52-9.72-4.49-14.09h-.61c-1.46,1.94-4.37,3.28-6.68,3.89l1.7,4.61-13.94,39.36c-.18,0-.67.09-.85.09-9.6.49-24.24-1.33-25.57-13.29C2.37,34.66,0,34.66,0,34.66c.09,7.87,6.22,13.72,13.3,15.79,4.53,1.52,9.19,1.84,13.86,2.02l-9.2,25.99c-3.16,8.38-6.68,10.23-12.63,10.83v1.56h24.41v-1.56c-10.32-.61-10.49-3.41-7.94-10.33,3.12-8.83,5.88-17.44,9-26.27,1.15,0,1.34-.05,2.48.01,10.37.48,20.03,2.96,27.06,9.89,2.51,2.47,4.33,5.55,5.51,8.87,1.56,4.42,3.97,11.24,3.97,11.24,1.94,5.59,1.09,6.46-9.11,6.58v1.56h27.76v-1.9h-.01ZM32.68,47.45l12.04-34.57,15,41.26c-8.33-5.39-17.63-6.67-27.05-6.7Z" fill="#fff"/></svg>