<?xml version="1.0" encoding="UTF-8"?>
<svg id="Logo" xmlns="http://www.w3.org/2000/svg" viewBox="0 0 345.02 100.93">
  <g>
    <path d="M243.07.89c-17.99,0-32.49,13.78-32.49,34.27s13.69,32.66,31.23,32.66,32.93-13.78,32.93-34.27S260.97.89,243.07.89ZM243.25,65.94c-15.21,0-26.67-13.97-26.67-32.9s10.92-30.25,25.15-30.25c15.57,0,27.03,14.06,27.03,32.9s-11.1,30.25-25.5,30.25Z" fill="#fff"/>
    <path d="M343.32,46.94c-5.37,10.47-13.6,17.32-24.96,17.32-15.57,0-27.39-11.29-27.39-31.51,0-18.52,12.14-30.13,26.82-30.13,10.2,0,20.35,4.36,24.91,17.87h.94l-2.1-18.71h-.99c-.36,3.49-.98,4.3-2.15,4.3-1.88,0-7.61-5.19-20.67-5.19-17.18,0-32.75,13.78-32.75,34.45,0,19.51,13.96,32.48,30.78,32.48,14.05,0,24.07-8.59,29.26-20.13l-1.7-.76Z" fill="#fff"/>
    <path d="M179.01,1.79v1.15c6.26.36,7.52.37,7.52,3.77v27.55c-4.02.28-8.12-.16-12.13-.25-19.44-.6-26.24,6.7-27.08,7.41V6.71c0-3.4,1.25-3.42,7.52-3.77v-1.15h-20.1v1.15c6.26.36,7.52.37,7.52,3.77v55.3c0,3.4-1.25,3.42-7.52,3.77v1.15h20.1v-1.15c-6.26-.36-7.52-.37-7.52-3.77v-9.17c0-.82.22-2.08.67-3.4,2.67-6.67,11.34-10.45,18.36-11.14,6.66-.91,13.51.23,20.19-.6v24.3c0,3.4-1.25,3.42-7.52,3.77v1.15h20.1v-1.15c-6.26-.36-7.52-.37-7.52-3.77v-25.41c5.26-1.42,10.99-5.21,11.46-11.08h-1.67c-1.06,4.49-5.44,6.9-9.78,7.93V6.71c0-3.4,1.25-3.42,7.52-3.77v-1.15h-20.1Z" fill="#fff"/>
    <path d="M65.1,65.53s0,0,0,0c-5.78-.45-6.59-.66-8.91-6.82L38.91,10.38c-2.15-5.82-2.59-7.16-3.31-10.38h-.45c-1.07,1.43-3.22,2.42-4.92,2.86l1.25,3.4-10.27,29c-.14,0-.49.06-.63.07-7.08.36-17.86-.98-18.84-9.79C1.75,25.54,0,25.54,0,25.54c.07,5.8,4.59,10.11,9.8,11.64,3.34,1.12,6.77,1.36,10.21,1.49l-6.78,19.15c-2.33,6.17-4.92,7.53-9.31,7.98v1.15h17.99v-1.15c-7.61-.45-7.73-2.51-5.85-7.61,2.3-6.51,4.33-12.85,6.63-19.36.85,0,.99-.04,1.83,0,7.64.35,14.76,2.18,19.94,7.29,1.85,1.82,3.19,4.09,4.06,6.54,1.15,3.26,2.93,8.28,2.93,8.28,1.43,4.12.8,4.76-6.71,4.85v1.15h44.66c20.76,0,37.94-12.8,37.94-33.38S111.94,1.79,90.37,1.79h-23.89v1.15c6.26.36,7.52.37,7.52,3.77v55.3c0,3.4-1.22,3.14-7.49,3.5l-1.31.02h-.03s-.07,0-.07,0ZM24.08,34.96l8.87-25.47,11.05,30.4c-6.14-3.97-12.99-4.91-19.93-4.93ZM90.7,64.57c-10.2,0-11.43-.31-11.43-3.53V3.67h10.31c18.79,0,31.84,12.8,31.84,32.04s-14.17,28.86-30.72,28.86Z" fill="#fff"/>
  </g>
  <g>
    <path d="M64.53,98.68h4.99v2.03h-7.26v-12.83h2.27v10.8Z" fill="#fff"/>
    <path d="M73.87,100.71v-12.83h2.27v12.83h-2.27Z" fill="#fff"/>
    <path d="M89.53,89.91h-5.51v3.48h4.36v2.03h-4.36v5.29h-2.27v-12.83h7.78v2.03Z" fill="#fff"/>
    <path d="M96.37,98.68h5.81v2.03h-8.06v-12.83h7.88v2.03h-5.62v3.46h4.92v2.07h-4.92v3.24Z" fill="#fff"/>
    <path d="M113.12,94.3c0-3.63,2.9-6.65,6.52-6.65,2.1,0,3.95.99,5.1,2.5l-1.71,1.3c-.78-1.02-1.94-1.68-3.33-1.68-2.44,0-4.28,2.07-4.28,4.52s1.81,4.51,4.28,4.51c1.4,0,2.55-.65,3.33-1.68l1.71,1.3c-1.15,1.51-3,2.5-5.1,2.5-3.61,0-6.52-3-6.52-6.63Z" fill="#fff"/>
    <path d="M128.22,94.3c0-3.63,2.85-6.65,6.52-6.65s6.52,3.02,6.52,6.65-2.87,6.63-6.52,6.63-6.52-3-6.52-6.63ZM138.98,94.3c0-2.46-1.81-4.52-4.26-4.52s-4.21,2.07-4.21,4.52,1.77,4.51,4.21,4.51,4.26-2.05,4.26-4.51Z" fill="#fff"/>
    <path d="M145.21,94.3c0-3.63,2.85-6.65,6.52-6.65s6.52,3.02,6.52,6.65-2.87,6.63-6.52,6.63-6.52-3-6.52-6.63ZM155.97,94.3c0-2.46-1.81-4.52-4.26-4.52s-4.21,2.07-4.21,4.52,1.77,4.51,4.21,4.51,4.26-2.05,4.26-4.51Z" fill="#fff"/>
    <path d="M169.61,100.71l-3.17-4.67h-1.15v4.67h-2.27v-12.83h5.03c2.87,0,4.08,2.07,4.08,4.11,0,1.84-1.21,3.7-3.17,3.96l3.33,4.75h-2.68ZM165.29,89.91v4.21h2.29c1.6,0,2.27-.91,2.27-2.08s-.73-2.12-1.97-2.12h-2.59Z" fill="#fff"/>
    <path d="M182.07,87.88c3.67,0,5.81,2.79,5.81,6.44s-2.14,6.38-5.81,6.38h-5.03v-12.83h5.03ZM182.07,98.68c2.33,0,3.52-1.97,3.52-4.36s-1.19-4.41-3.52-4.41h-2.75v8.77h2.75Z" fill="#fff"/>
    <path d="M192.74,100.71v-12.83h2.27v12.83h-2.27Z" fill="#fff"/>
    <path d="M207.79,87.88h2.27v12.83h-2.07l-5.12-8.64v8.64h-2.27v-12.83h2.14l5.04,8.56v-8.56Z" fill="#fff"/>
    <path d="M223.65,100.71l-1.12-3.15h-5.04l-1.1,3.15h-2.42l4.82-12.83h2.46l4.8,12.83h-2.4ZM218.18,95.59h3.67l-1.82-5.21-1.84,5.21Z" fill="#fff"/>
    <path d="M237.24,87.88v2.03h-3.67v10.8h-2.27v-10.8h-3.67v-2.03h9.61Z" fill="#fff"/>
    <path d="M241.57,100.71v-12.83h2.27v12.83h-2.27Z" fill="#fff"/>
    <path d="M248.62,94.3c0-3.63,2.85-6.65,6.52-6.65s6.51,3.02,6.51,6.65-2.87,6.63-6.51,6.63-6.52-3-6.52-6.63ZM259.38,94.3c0-2.46-1.81-4.52-4.26-4.52s-4.21,2.07-4.21,4.52,1.77,4.51,4.21,4.51,4.26-2.05,4.26-4.51Z" fill="#fff"/>
    <path d="M273.62,87.88h2.27v12.83h-2.07l-5.12-8.64v8.64h-2.27v-12.83h2.14l5.04,8.56v-8.56Z" fill="#fff"/>
  </g>
</svg>